# AST/ASF file generated using VICON BodyLanguage
# -----------------------------------------------
:version 1.10
:name VICON
:units
  mass 1.0
  length 0.45
  angle deg
:documentation
   .ast/.asf automatically generated from VICON data using
   VICON BodyBuilder and BodyLanguage model FoxedUp or BRILLIANT.MOD
:root
   order TX TY TZ RX RY RZ
   axis XYZ
   position 0 0 0  
   orientation 0 0 0 
:bonedata
  begin
     id 1 
     name lhipjoint
     direction 0.541323 -0.757556 0.364798 
     length 2.47576 
     axis 0 0 0  XYZ
  end
  begin
     id 2 
     name lfemur
     direction 0.34202 -0.939693 0  
     length 7.46493  
     axis 0 0 20  XYZ
    dof rx ry rz
    limits (-160.0 20.0)
           (-70.0 70.0)
           (-60.0 70.0)
  end
  begin
     id 3 
     name ltibia
     direction 0.34202 -0.939693 0   
     length 7.73805   
     axis 0 0 20   XYZ
    dof rx
    limits (-10.0 170.0)
  end
  begin
     id 4 
     name lfoot
     direction 0.107174 -0.294458 0.949636   
     length 2.25864   
     axis -90 7.62852e-016 20   XYZ
    dof rx rz
    limits (-45.0 90.0)
           (-70.0 20.0)
  end
  begin
     id 5 
     name ltoes
     direction 1.53606e-011 -4.21934e-011 1   
     length 1.12451   
     axis -90 7.62852e-016 20   XYZ
    dof rx
    limits (-90.0 20.0)
  end
  begin
     id 6 
     name rhipjoint
     direction -0.524745 -0.766967 0.36933   
     length 2.44538  
     axis 0 0 0  XYZ 
  end
  begin
     id 7 
     name rfemur
     direction -0.34202 -0.939693 0   
     length 7.61604   
     axis 0 0 -20   XYZ
    dof rx ry rz
    limits (-160.0 20.0)
           (-70.0 70.0)
           (-70.0 60.0)
  end
  begin
     id 8 
     name rtibia
     direction -0.34202 -0.939693 0   
     length 7.61056   
     axis 0 0 -20   XYZ
    dof rx
    limits (-10.0 170.0)
 end
 begin
     id 9 
     name rfoot
     direction -0.12616 -0.346623 0.929482   
     length 2.46372  
     axis -90 -7.62852e-016 -20   XYZ
    dof rx rz
    limits (-45.0 90.0)
           (-20.0 70.0)
  end
  begin
     id 10 
     name rtoes
     direction -1.53531e-011 -4.22004e-011 1   
     length 1.21611   
     axis -90 -7.62852e-016 -20   XYZ
    dof rx
    limits (-90.0 20.0)
  end
  begin
     id 11 
     name lowerback
     direction -0.000778023 0.997293 -0.0735223   
     length 2.06139   
     axis 0 0 0   XYZ
    dof rx ry rz
    limits (-20.0 45.0)
           (-30.0 30.0)
           (-30.0 30.0)
  end
  begin
     id 12 
     name upperback
     direction 0.0222598 0.999722 -0.0078355   
     length 2.06383   
     axis 0 0 0   XYZ
    dof rx ry rz
    limits (-20.0 45.0)
           (-30.0 30.0)
           (-30.0 30.0)
  end
  begin
     id 13 
     name thorax
     direction 0.0219654 0.999405 0.0265994   
     length 2.07163   
     axis 0 0 0   XYZ
    dof rx ry rz
    limits (-20.0 45.0)
           (-30.0 30.0)
           (-30.0 30.0)
  end
  begin
     id 14 
     name lowerneck
     direction 0.0213282 0.988147 0.15202   
     length 1.75969   
     axis 0 0 0   XYZ
    dof rx ry rz
    limits (-20.0 45.0)
           (-30.0 30.0)
           (-30.0 30.0)
  end
  begin
     id 15 
     name upperneck
     direction -0.0546456 0.982624 -0.177379   
     length 1.79244   
     axis 0 0 0   XYZ
    dof rx ry rz
    limits (-20.0 45.0)
           (-30.0 30.0)
           (-30.0 30.0)
  end
  begin
     id 16
     name head
     direction -0.0199987 0.996855 -0.076686  
     length 1.80555  
     axis 0 0 0   XYZ
    dof rx ry rz
    limits (-20.0 45.0)
           (-30.0 30.0)
           (-30.0 30.0)
  end
  begin
     id 17 
     name lclavicle
     direction 0.929565 0.363219 -0.063096  
     length 3.55722  
     axis 0 0 0   XYZ
    dof ry rz
    limits (-20.0 10.0)
           (0.0 20.0)
  end
  begin
     id 18 
     name lhumerus
     direction 1 -4.48993e-011 -2.36203e-027   
     length 4.92785   
     axis 180 -30 -90   XYZ
    dof rx ry rz
    limits (-60.0 90.0)
           (-90.0 90.0)
           (-90.0 90.0)
  end
  begin
     id 19
     name lradius
     direction 1 -4.48947e-011 2.02997e-027   
     length 3.44052   
     axis 180 -30 -90   XYZ
    dof rx
    limits (-10.0 170.0)
  end
  begin
     id 20
     name lwrist
     direction 1 -4.48962e-011 1.45991e-027   
     length 1.72026   
     axis 1.49639e-024 90 90   XYZ
    dof ry
    limits (-180.0 0.0)
 end
  begin
     id 21 
     name lhand
     direction 1 -4.48984e-011 2.91906e-027   
     length 0.654326   
     axis -1.863e-015 90 90   XYZ
    dof rx rz
    limits (-90.0 90.0)
           (-45.0 45.0)
  end
  begin
     id 22 
     name lfingers
     direction 1 -4.48961e-011 5.83968e-027   
     length 0.527534   
     axis -3.72598e-015 90 90   XYZ
    dof rx
    limits (0.0 90.0)
  end
  begin
     id 23
     name lthumb
     direction 0.707107 -6.34963e-011 0.707107   
     length 0.757437   
     axis -90 45 -6.68868e-015   XYZ
    dof rx rz
    limits (-45.0 45.0)
           (-45.0 45.0)
  end
  begin
     id 24 
     name rclavicle
     direction -0.902944 0.422599 -0.0781198   
     length 3.54432  
     axis 0 0 0   XYZ 
    dof ry rz
    limits (-10.0 20.0)
           (-20.0 0.0)
  end
  begin
     id 25 
     name rhumerus
     direction -1 -4.48953e-011 -4.75835e-028  
     length 5.09181   
     axis 180 30 90   XYZ
    dof rx ry rz
    limits (-90.0 60.0)
           (-90.0 90.0)
           (-90.0 90.0)
  end
  begin
     id 26 
     name rradius
     direction -1 -4.48986e-011 -3.25889e-027   
     length 3.49865   
     axis 180 30 90   XYZ
    dof rx
    limits (-10.0 170.0)
  end
  begin
     id 27 
     name rwrist
     direction -1 -4.48963e-011 1.45989e-027   
     length 1.74933   
     axis 1.49639e-024 -90 -90   XYZ
    dof ry
    limits (-180.0 0.0)
  end
  begin
     id 28
     name rhand
     direction -1 -4.49003e-011 2.91844e-027   
     length 0.66641   
     axis -1.863e-015 -90 -90   XYZ
    dof rx rz
    limits (-90.0 90.0)
           (-45.0 45.0)
  end
  begin
     id 29
     name rfingers
     direction -1 -4.48973e-011 5.83886e-027   
     length 0.537277   
     axis -3.72598e-015 -90 -90   XYZ
    dof rx
    limits (0.0 90.0)
  end
  begin
     id 30
     name rthumb
     direction -0.707107 -6.34976e-011 0.707107   
     length 0.771425   
     axis -90 -45 6.68868e-015   XYZ
    dof rx rz
    limits (-45.0 45.0)
           (-45.0 45.0)
  end
:hierarchy
  begin
    root lhipjoint rhipjoint lowerback
    lhipjoint lfemur
    lfemur ltibia
    ltibia lfoot
    lfoot ltoes
    rhipjoint rfemur
    rfemur rtibia
    rtibia rfoot
    rfoot rtoes
    lowerback upperback
    upperback thorax
    thorax lowerneck lclavicle rclavicle
    lowerneck upperneck
    upperneck head
    lclavicle lhumerus
    lhumerus lradius
    lradius lwrist
    lwrist lhand lthumb
    lhand lfingers
    rclavicle rhumerus
    rhumerus rradius
    rradius rwrist
    rwrist rhand rthumb
    rhand rfingers
  end

#!OML:ASF H:\LiuWeirdWalks\Patient Classification 1\Patient 1\Session 1\male.ASF
:FULLY-SPECIFIED
:DEGREES
102
root -0.342108 17.9902 -31.1477 1.4415 27.7183 -2.44367
lowerback 4.38804 7.47184 3.88547
upperback -1.86275 10.2793 1.49739
thorax -3.96672 5.02891 -1.3464
lowerneck -0.597075 18.2833 14.79
upperneck 12.4639 25.8219 -10.663
head 7.20066 12.7722 -3.2306
rclavicle -6.93137e-014 7.95139e-015
rhumerus -50.4637 -24.3687 -51.6741
rradius 34.4155
rwrist -9.05302
rhand -27.0783 1.5713
rfingers 7.12502
rthumb -0.495686 -28.4079
lclavicle -6.93137e-014 7.95139e-015
lhumerus -27.9003 6.59508 85.1195
lradius 21.4529
lwrist 5.00037
lhand -12.5625 -3.5129
lfingers 7.12502
lthumb 13.5149 26.0285
rfemur -2.85942 -9.19591 21.7038
rtibia 24.066
rfoot -14.9238 -32.6742
rtoes 1.05295
lfemur -10.471 -7.95802 -14.2386
ltibia 25.6814
lfoot -11.3672 6.5032
ltoes -8.78742
103
root -0.339259 17.9918 -31.1535 1.47785 27.4855 -2.43596
lowerback 4.38696 7.41989 3.87589
upperback -1.92143 10.2112 1.47263
thorax -4.0273 4.99278 -1.36728
lowerneck -0.518204 18.0976 14.9414
upperneck 12.57 25.5698 -10.611
head 7.2027 12.6626 -3.27567
rclavicle 3.51538e-014 1.51076e-014
rhumerus -50.483 -24.3314 -51.618
rradius 34.3828
rwrist -8.98836
rhand -27.1247 1.51663
rfingers 7.12502
rthumb -0.540526 -28.4624
lclavicle 3.51538e-014 1.51076e-014
lhumerus -28.0726 6.53976 85.0092
lradius 21.5682
lwrist 5.09775
lhand -12.6575 -3.40794
lfingers 7.12502
lthumb 13.4233 26.1396
rfemur -2.91686 -9.1397 21.6581
rtibia 24.0632
rfoot -14.8942 -32.4869
rtoes 1.02358
lfemur -10.4578 -7.87698 -14.2707
ltibia 25.6603
lfoot -11.3206 6.67522
ltoes -8.72057
104
root -0.336269 17.9936 -31.1589 1.50856 27.2509 -2.44591
lowerback 4.36811 7.34309 3.86486
upperback -1.96205 10.1091 1.47271
thorax -4.06536 4.94104 -1.35633
lowerneck -0.512276 17.903 15.0716
upperneck 12.7361 25.3051 -10.5653
head 7.23258 12.5422 -3.3128
rclavicle 9.95476e-015 -3.97569e-015
rhumerus -50.4183 -24.2474 -51.6009
rradius 34.343
rwrist -8.92465
rhand -27.1848 1.50474
rfingers 7.12502
rthumb -0.598578 -28.4742
lclavicle 9.95476e-015 -3.97569e-015
lhumerus -28.2323 6.61202 84.8763
lradius 21.6734
lwrist 5.15812
lhand -12.7623 -3.35418
lfingers 7.12502
lthumb 13.3223 26.2
rfemur -2.9746 -9.08603 21.6302
rtibia 24.0562
rfoot -14.8508 -32.2983
rtoes 0.973381
lfemur -10.4485 -7.78137 -14.2847
ltibia 25.6418
lfoot -11.2807 6.83375
ltoes -8.67663
105
root -0.332749 17.9955 -31.164 1.54409 27.0174 -2.44561
lowerback 4.3784 7.32091 3.88708
upperback -2.03331 10.0813 1.3978
thorax -4.12934 4.92304 -1.44895
lowerneck -0.615613 17.6171 15.3643
upperneck 13.0148 24.9013 -10.5063
head 7.31791 12.3561 -3.37048
rclavicle -3.35201e-014 -1.23246e-014
rhumerus -50.5482 -24.3326 -51.5191
rradius 34.3325
rwrist -8.85166
rhand -27.2424 1.53375
rfingers 7.12502
rthumb -0.654187 -28.445
lclavicle -3.35201e-014 -1.23246e-014
lhumerus -28.3748 6.44148 84.7287
lradius 21.7642
lwrist 5.2471
lhand -12.8761 -3.30768
lfingers 7.12502
lthumb 13.2126 26.2536
rfemur -3.03025 -9.0495 21.5878
rtibia 24.0464
rfoot -14.796 -32.0988
rtoes 0.906749
lfemur -10.438 -7.68608 -14.3116
ltibia 25.6244
lfoot -11.2395 6.99311
ltoes -8.63794
106
root -0.329368 17.9973 -31.1683 1.57378 26.7773 -2.45072
lowerback 4.37318 7.28263 3.88503
upperback -2.08338 10.0298 1.34669
thorax -4.17204 4.89512 -1.49966
lowerneck -0.83386 17.3232 15.5896
upperneck 13.3704 24.4797 -10.4382
head 7.43475 12.1548 -3.40876
rclavicle -4.35152e-015 -1.59028e-015
rhumerus -50.6149 -24.3891 -51.4601
rradius 34.3252
rwrist -8.78349
rhand -27.3042 1.57652
rfingers 7.12502
rthumb -0.713866 -28.402
lclavicle -4.35152e-015 -1.59028e-015
lhumerus -28.5067 6.34375 84.5803
lradius 21.8611
lwrist 5.35185
lhand -12.993 -3.28753
lfingers 7.12502
lthumb 13.0999 26.281
rfemur -3.08095 -8.99931 21.5542
rtibia 24.0356
rfoot -14.7373 -31.9097
rtoes 0.833116
lfemur -10.4197 -7.59158 -14.332
ltibia 25.6071
lfoot -11.2018 7.15484
ltoes -8.60553
107
root -0.32668 17.9988 -31.1718 1.59679 26.549 -2.45731
lowerback 4.31974 7.22676 3.8326
upperback -2.08679 9.94897 1.3371
thorax -4.15616 4.85689 -1.46984
lowerneck -1.14103 17.0214 15.7494
upperneck 13.7585 24.0439 -10.3959
head 7.57026 11.9396 -3.44193
rclavicle -1.10605e-013 -1.23246e-014
rhumerus -50.5844 -24.4285 -51.4104
rradius 34.3231
rwrist -8.72731
rhand -27.3653 1.60434
rfingers 7.12502
rthumb -0.77286 -28.374
lclavicle -1.10605e-013 -1.23246e-014
lhumerus -28.5857 6.35513 84.4548
lradius 21.9448
lwrist 5.42222
lhand -13.1099 -3.31165
lfingers 7.12502
lthumb 12.9873 26.2641
rfemur -3.1243 -8.93518 21.5301
rtibia 24.0281
rfoot -14.683 -31.7488
rtoes 0.757004
lfemur -10.3928 -7.50444 -14.3462
ltibia 25.586
lfoot -11.1717 7.30503
ltoes -8.59189
108
root -0.324294 18 -31.1746 1.61566 26.3217 -2.45872
lowerback 4.21304 7.16132 3.72942
upperback -2.05506 9.84975 1.36538
thorax -4.08944 4.81338 -1.36403
lowerneck -1.38053 16.694 15.9431
upperneck 14.0545 23.589 -10.4719
head 7.68089 11.715 -3.52829
rclavicle 1.87883e-014 5.56597e-015
rhumerus -50.4701 -24.4651 -51.3436
rradius 34.302
rwrist -8.66535
rhand -27.4191 1.60788
rfingers 7.12502
rthumb -0.824868 -28.3703
lclavicle 1.87883e-014 5.56597e-015
lhumerus -28.6517 6.4302 84.3631
lradius 22.0332
lwrist 5.44435
lhand -13.2502 -3.35451
lfingers 7.12502
lthumb 12.852 26.2298
rfemur -3.16161 -8.85872 21.5055
rtibia 24.0263
rfoot -14.6437 -31.6045
rtoes 0.684961
lfemur -10.3538 -7.42465 -14.363
ltibia 25.5605
lfoot -11.1423 7.456
ltoes -8.57576
109
root -0.322333 18.0007 -31.1768 1.63555 26.1118 -2.4479
lowerback 4.05348 7.03515 3.56647
upperback -1.9813 9.66479 1.46009
thorax -3.97343 4.73152 -1.14473
lowerneck -1.64893 16.3936 15.9675
upperneck 14.3779 23.1801 -10.5433
head 7.78961 11.5047 -3.58552
rclavicle 1.22383e-013 3.57812e-015
rhumerus -50.1701 -24.3663 -51.3348
rradius 34.2721
rwrist -8.61784
rhand -27.4727 1.54645
rfingers 7.12502
rthumb -0.876588 -28.4315
lclavicle 1.22383e-013 3.57812e-015
lhumerus -28.7216 6.74693 84.2756
lradius 22.1172
lwrist 5.36758
lhand -13.4535 -3.37512
lfingers 7.12502
lthumb 12.656 26.2214
rfemur -3.19444 -8.77362 21.4753
rtibia 24.0331
rfoot -14.6233 -31.4849
rtoes 0.62753
lfemur -10.3063 -7.37439 -14.3887
ltibia 25.5283
lfoot -11.1108 7.61383
ltoes -8.5582
110
root -0.32049 18.0013 -31.1784 1.65965 25.9012 -2.42233
lowerback 3.82259 6.77785 3.29588
upperback -1.8589 9.30065 1.70384
thorax -3.81293 4.56684 -0.696124
lowerneck -1.78743 16.1768 15.6782
upperneck 14.6446 22.929 -10.6409
head 7.84434 11.3612 -3.60373
rclavicle -1.29462e-013 -1.11319e-014
rhumerus -49.492 -23.8912 -51.4492
rradius 34.1975
rwrist -8.59317
rhand -27.5165 1.43939
rfingers 7.12502
rthumb -0.91895 -28.5384
lclavicle -1.29462e-013 -1.11319e-014
lhumerus -28.8792 7.66233 84.1534
lradius 22.1988
lwrist 5.14989
lhand -13.6665 -3.43424
lfingers 7.12502
lthumb 12.4506 26.1749
rfemur -3.22822 -8.67985 21.4331
rtibia 24.0494
rfoot -14.6062 -31.3766
rtoes 0.572988
lfemur -10.2501 -7.34002 -14.4285
ltibia 25.489
lfoot -11.0794 7.78288
ltoes -8.54973
111
root -0.318201 18.0019 -31.1801 1.69418 25.6876 -2.38618
lowerback 3.52727 6.39399 2.94179
upperback -1.73462 8.76767 2.08727
thorax -3.6459 4.32181 -0.0457392
lowerneck -1.7368 16.0115 15.0769
upperneck 14.9034 22.8051 -10.7522
head 7.84599 11.2726 -3.58656
rclavicle 8.32255e-015 2.38542e-014
rhumerus -48.5293 -22.9891 -51.6497
rradius 34.0854
rwrist -8.60518
rhand -27.5417 1.30288
rfingers 7.12502
rthumb -0.94328 -28.6748
lclavicle 8.32255e-015 2.38542e-014
lhumerus -29.2081 9.10549 83.9965
lradius 22.2987
lwrist 4.88161
lhand -13.8761 -3.4479
lfingers 7.12502
lthumb 12.2486 26.1734
rfemur -3.27287 -8.59414 21.3774
rtibia 24.073
rfoot -14.5901 -31.2596
rtoes 0.524232
lfemur -10.1961 -7.31935 -14.4809
ltibia 25.4445
lfoot -11.0366 7.96952
ltoes -8.51573
112
root -0.31535 18.0027 -31.182 1.73444 25.4599 -2.35012
lowerback 3.20712 5.87835 2.53653
upperback -1.59097 8.0609 2.58701
thorax -3.45589 3.9925 0.762886
lowerneck -1.61989 15.9348 14.1538
upperneck 15.1355 22.8345 -10.8663
head 7.80991 11.2446 -3.51428
rclavicle -1.77707e-014 9.54166e-015
rhumerus -47.2538 -21.6942 -51.9793
rradius 33.9533
rwrist -8.65974
rhand -27.5451 1.16978
rfingers 7.12502
rthumb -0.946538 -28.8079
lclavicle -1.77707e-014 9.54166e-015
lhumerus -29.6465 11.0788 83.7665
lradius 22.4152
lwrist 4.58373
lhand -14.0674 -3.4488
lfingers 7.12502
lthumb 12.0642 26.1834
rfemur -3.32891 -8.51808 21.3162
rtibia 24.1003
rfoot -14.5655 -31.1233
rtoes 0.476553
lfemur -10.1441 -7.30604 -14.5365
ltibia 25.3978
lfoot -10.9938 8.17209
ltoes -8.48357
